<svg width="56" height="85" viewBox="0 0 56 85" fill="none" xmlns="http://www.w3.org/2000/svg">
    <path d="M55.2094 9.24739C54.4701 8.12789 53.39 8.09574 52.1592 8.0591C52.0197 8.05495 51.8784 8.05074 51.7353 8.04488C51.6264 8.03993 51.5062 8.04184 51.3805 8.04383C50.8814 8.05176 50.2975 8.06103 50.0034 7.64633C49.6624 7.16554 49.6947 6.23639 49.7214 5.46934C49.7298 5.22696 49.7377 5.00062 49.7331 4.80989C49.6851 3.02804 49.5852 1.13525 48.8895 0.502494C48.365 0.027748 46.7957 0.0935177 45.3484 0.154173C44.8792 0.173836 44.4228 0.192962 44.0191 0.192962H13.2132C12.593 0.192962 11.9428 0.143023 11.304 0.0939558C10.0592 -0.00165411 8.85751 -0.0939555 8.00414 0.192962C6.76567 0.611394 6.68181 2.81017 6.60285 4.88065L6.59859 4.99204C6.5323 6.70131 6.10389 8.02023 4.68406 7.88738C3.0327 7.73535 1.38949 7.68742 0.642855 9.16522C-0.238939 10.9137 -0.0570786 12.744 0.268661 16.0223C0.315191 16.4906 0.364657 16.9884 0.414377 17.5198H55.6857C55.7173 17.1314 55.751 16.748 55.7841 16.3708C56.0429 13.4213 56.2684 10.8515 55.2094 9.24739Z" fill="#8047F8"/>
    <path fill-rule="evenodd" clip-rule="evenodd" d="M4.71875 20.7712C5.58198 32.3232 6.43578 43.8885 7.2896 55.4539L7.29013 55.461C7.75372 61.7406 8.21732 68.0203 8.68244 74.2979H10.446C10.5662 75.2806 10.7037 76.4937 10.8487 77.7728C11.143 80.3691 11.4681 83.2374 11.7414 85H11.9365C13.7328 84.3501 26.1512 79.1016 26.1568 58.2061C26.1545 58.1465 26.1565 58.0869 26.1627 58.0278H23.0947C22.9462 58.0264 22.8022 57.9774 22.6849 57.8883C22.5677 57.7991 22.4837 57.6748 22.4457 57.5344C22.1468 56.8042 21.9057 56.0525 21.7247 55.2861C19.9198 56.294 18.4865 57.8331 17.6291 59.6841C16.8152 57.7884 16.7086 55.6735 17.3281 53.7088C17.9476 51.7442 19.2536 50.0548 21.018 48.9359C21.0408 42.8385 23.3496 36.9608 27.5076 32.4154L27.5724 32.359C27.6933 32.2557 27.848 32.1982 28.0085 32.1969C28.1013 32.1977 28.1929 32.2173 28.2776 32.2545C28.3633 32.2921 28.44 32.347 28.5026 32.4154C32.7091 36.967 35.0057 42.9012 34.9344 49.0346C36.7318 50.1223 38.0645 51.8105 38.685 53.7858C39.3056 55.7611 39.172 57.8894 38.309 59.7757C37.4562 57.9218 36.0217 56.3814 34.2134 55.3777C34.1029 56.1205 33.8995 56.8472 33.6077 57.5415C33.5067 57.8375 33.3048 58.0278 33.103 58.0278H29.8311C29.8362 58.0632 29.8399 58.0988 29.842 58.1346L29.8432 58.1428V58.16C29.8444 58.1908 29.8444 58.2216 29.8433 58.2525C29.8881 79.7479 43.0915 84.6269 44.2045 85H44.5852C44.6824 83.307 44.9987 80.9708 45.3072 78.6932C45.5197 77.1237 45.7285 75.582 45.8591 74.2979H47.6431C48.2141 66.3906 48.8014 58.5054 49.3887 50.62L49.389 50.6157L49.3892 50.6134C50.1404 40.5271 50.8916 30.4405 51.6088 20.3069H4.83298C4.69834 20.3329 4.70753 20.5507 4.71875 20.7712ZM28.0085 32.1969L28.0051 32.1969H28.0123L28.0085 32.1969Z" fill="#8047F8"/>
</svg>
